<svg xmlns="http://www.w3.org/2000/svg" width="44" height="33"><defs><linearGradient id="a" x1="5.01" x2="38.99" y1="0" y2="32.99" gradientUnits="userSpaceOnUse"><stop offset="0" stop-color="#fff"/><stop offset="1" stop-color="#fff"/></linearGradient></defs><path fill="url(#a)" d="M43.992 16.537c0 .035-.035.053-.037.089v10.34a.786.786 0 01-.79.781h-2.639a.783.783 0 01-.787-.78c0-.432.352-.781.787-.781h1.85v-8.87H35.25a.783.783 0 01-.787-.779V6.822h-6.339v14.32c0 .428-.352.78-.787.78a.788.788 0 01-.79-.78V1.551H1.584v24.634h1.879c.435 0 .79.35.79.78a.785.785 0 01-.79.781H.797a.785.785 0 01-.79-.78V.775c0-.43.355-.779.79-.779h26.54c.435 0 .787.348.787.779v4.487h15.04c.435 0 .79.351.79.782v10.402c.003.036.038.055.038.091zm-1.616-9.715h-6.338v8.934h6.338zM38.684 26.97c0 3.32-2.73 6.02-6.083 6.02-3.36 0-6.092-2.7-6.092-6.02 0-3.318 2.732-6.017 6.092-6.017 3.354 0 6.083 2.699 6.083 6.017zm-1.578 0c0-2.459-2.022-4.458-4.505-4.458-2.489 0-4.514 2-4.514 4.458 0 2.46 2.025 4.46 4.514 4.46 2.483 0 4.505-2 4.505-4.46zm-19.62-.002c0 3.32-2.732 6.019-6.089 6.019-3.36 0-6.089-2.698-6.089-6.02 0-3.318 2.73-6.018 6.09-6.018 3.356 0 6.089 2.7 6.089 6.019zm-1.577 0c0-2.46-2.026-4.457-4.512-4.457-2.489 0-4.514 1.998-4.514 4.457 0 2.46 2.025 4.46 4.514 4.46 2.486 0 4.512-2 4.512-4.46zm9.546 0c0 .432-.352.78-.788.78h-5.339a.783.783 0 01-.787-.78c0-.432.352-.781.787-.781h5.34c.435 0 .787.35.787.78z"/><path fill="#ff3b4a" d="M43.992 16.537c0 .035-.035.053-.037.089v10.34a.786.786 0 01-.79.781h-2.639a.783.783 0 01-.787-.78c0-.432.352-.781.787-.781h1.85v-8.87H35.25a.783.783 0 01-.787-.779V6.822h-6.339v14.32c0 .428-.352.78-.787.78a.788.788 0 01-.79-.78V1.551H1.584v24.634h1.879c.435 0 .79.35.79.78a.785.785 0 01-.79.781H.797a.785.785 0 01-.79-.78V.775c0-.43.355-.779.79-.779h26.54c.435 0 .787.348.787.779v4.487h15.04c.435 0 .79.351.79.782v10.402c.003.036.038.055.038.091zm-1.616-9.715h-6.338v8.934h6.338zM38.684 26.97c0 3.32-2.73 6.02-6.083 6.02-3.36 0-6.092-2.7-6.092-6.02 0-3.318 2.732-6.017 6.092-6.017 3.354 0 6.083 2.699 6.083 6.017zm-1.578 0c0-2.459-2.022-4.458-4.505-4.458-2.489 0-4.514 2-4.514 4.458 0 2.46 2.025 4.46 4.514 4.46 2.483 0 4.505-2 4.505-4.46zm-19.62-.002c0 3.32-2.732 6.019-6.089 6.019-3.36 0-6.089-2.698-6.089-6.02 0-3.318 2.73-6.018 6.09-6.018 3.356 0 6.089 2.7 6.089 6.019zm-1.577 0c0-2.46-2.026-4.457-4.512-4.457-2.489 0-4.514 1.998-4.514 4.457 0 2.46 2.025 4.46 4.514 4.46 2.486 0 4.512-2 4.512-4.46zm9.546 0c0 .432-.352.78-.788.78h-5.339a.783.783 0 01-.787-.78c0-.432.352-.781.787-.781h5.34c.435 0 .787.35.787.78z"/></svg>